# xmcd CD database file
#
# Track frame offsets:
#	150
#	8692
#	24050
#	34542
#	50115
#	58947
#	67837
#	81567
#	91345
#	99600
#	121302
#	133735
#	147695
#	165347
#	179412
#	187987
#	197837
#	207812
#	218720
#	230412
#
# Disc length: 3310 seconds
#
# Revision: 0
# Processed by: cddbd v1.5.2PL0 Copyright (c) Steve Scherf et al.
# Submitted via: CDex 1.70beta2
#
DISCID=170cec14
DTITLE=Various Artist - Taas kaikki kauniit muistot... CD4
DYEAR=1994
DGENRE=Joululaulu
TTITLE0=On maassa hanget puhtahat - Soile Isokoski
TTITLE1=Oi, sä riemuisa - Kim Borg
TTITLE2=Rauhaa, vain rauhaa - Savonlinnan oopperajuhlakuoro
TTITLE3=Ensimmäinen Joulu - Jorma Hynninen
TTITLE4=Betlehem - Candomino-kuoro
TTITLE5=Oi Jeesus, lapsi armainen - Jorma Hynninen
TTITLE6=Legenda - Matti Salminen
TTITLE7=Tiernapoikien joululaulu - Kamarikuoro Cantemus
TTITLE8=Taivahalla syttyy juuri - Karita Mattila
TTITLE9=Hiljainen joululaulu - Esa Ruuttunen ja Pia-Gunn Anckar
TTITLE10=Oi saavu, rauhan juhla - Soile Isokoski
TTITLE11=Joululaulu - Esa Ruuttunen
TTITLE12=Joulun odotuksessa - Jorma Hynninen
TTITLE13=Mä kanssa enkelten - Matti Salminen
TTITLE14=Yön keskellä tähtönen loisti - Soile Isokoski
TTITLE15=Maa on niin kaunis - Philomela
TTITLE16=Seimen äärellä - Oulun Madetojan lukion kuoro
TTITLE17=Soittakaa kellot - Jorma Hynninen
TTITLE18=Hiljaa, hiljaa helkkyen - Eeva-Liisa Saarinen
TTITLE19=Jouluyö, juhlayö - Ylioppilaskunnan laulajat
EXTD=YEAR: 1994
EXTT0=
EXTT1=
EXTT2=
EXTT3=
EXTT4=
EXTT5=
EXTT6=
EXTT7=
EXTT8=
EXTT9=
EXTT10=
EXTT11=
EXTT12=
EXTT13=
EXTT14=
EXTT15=
EXTT16=
EXTT17=
EXTT18=
EXTT19=
PLAYORDER=
